/* XPM */
static char *e0c6a6e57293404bd38cd3a0ce7a09fbc1hsI1WGpNB5kh3G[] = {
/* columns rows colors chars-per-pixel */
"64 64 127 2 ",
"   c None",
".  c #E6D337",
"X  c #E8D336",
"o  c #E6D339",
"O  c #E9D23A",
"+  c #E5D443",
"@  c #E9D247",
"#  c #E5D54C",
"$  c #E8D54C",
"%  c #E2D84A",
"&  c #E4D650",
"*  c #EAD656",
"=  c #E4D854",
"-  c #E6D759",
";  c #EAD65D",
":  c #E5D95D",
">  c #E5D661",
",  c #E5DA64",
"<  c #EADA64",
"1  c #E7D76B",
"2  c #E6DC6C",
"3  c #E9DA6D",
"4  c #E6DC73",
"5  c #E9DC74",
"6  c #E5DD7C",
"7  c #E9DD7C",
"8  c #E6E07C",
"9  c #EBE17E",
"0  c #EBDE83",
"q  c #EBDE8B",
"w  c #ECDF93",
"e  c #E7E185",
"r  c #EBE185",
"t  c #E7E58B",
"y  c #EBE38B",
"u  c #E7E394",
"i  c #EBE293",
"p  c #ECE895",
"a  c #ECE49B",
"s  c #F0E293",
"d  c #F0E59B",
"f  c #EDE5A3",
"g  c #EBE8A4",
"h  c #EDE5AC",
"j  c #EEEAAB",
"k  c #F1E6A4",
"l  c #F1EBA4",
"z  c #F1E6AC",
"x  c #F1EBAB",
"c  c #EDE7B3",
"v  c #EEEAB3",
"b  c #EEEBBB",
"n  c #EDE9B9",
"m  c #F1E5B3",
"M  c #F1E7B2",
"N  c #F2E7B3",
"B  c #F2E7B4",
"V  c #F0E7B6",
"C  c #F4E6B6",
"Z  c #F2E7B4",
"A  c #F1E8B1",
"S  c #F4EDB3",
"D  c #F0E8B5",
"F  c #F2E8B4",
"G  c #F2E9B4",
"H  c #F1EAB6",
"J  c #F2EAB2",
"K  c #F8EDB2",
"L  c #F2E7B8",
"P  c #F1E8B9",
"I  c #F0E9BA",
"U  c #F2E9BB",
"Y  c #F1EBBA",
"T  c #F4E9B9",
"R  c #F0EABE",
"E  c #F4EFBF",
"W  c #F2EBBB",
"Q  c #ECF0B5",
"!  c #F3F0BB",
"~  c #EFEAC6",
"^  c #EEEDC6",
"/  c #F1E9C4",
"(  c #F0ECC5",
")  c #F5EEC7",
"_  c #F3EEC4",
"`  c #F8EEC6",
"'  c #F5ECCA",
"]  c #F3EBCC",
"[  c #F5EFCC",
"{  c #F0F0C1",
"}  c #F5F1C0",
"|  c #F5F1C5",
" . c #F5F3C9",
".. c #F6F1CD",
"X. c #F6F2CD",
"o. c #F9F3CD",
"O. c #F2EFD3",
"+. c #F2F0D1",
"@. c #F6F1D1",
"#. c #F6F4D6",
"$. c #F6F4D3",
"%. c #F9F4D5",
"&. c #F7F5DC",
"*. c #F9F6DC",
"=. c #F9EFE1",
"-. c #F6F1E0",
";. c #F7F5E1",
":. c #FBF7E3",
">. c #F9F9E7",
",. c #F9F8E2",
"<. c #F5F7EA",
"1. c #FBF3EC",
"2. c #FBFAEC",
"3. c #F6F6F7",
"4. c gray97",
"5. c #F9F4F5",
"6. c #FBF5F4",
"7. c #FAF7F5",
"8. c #F8F6F6",
"9. c #F9FDF0",
"0. c #FCFDF4",
"q. c #FCFCF4",
"w. c #F7F7F9",
"e. c #F6F8F9",
"r. c #FAFDFA",
"t. c #FBFDFB",
"y. c #FBFDF9",
/* pixels */
"                                                                                                                                ",
"                                                                                                                                ",
"                                                                                                                                ",
"                                                                                                                                ",
"                                                                                                                                ",
"                                                                                                                                ",
"                                                          K d p a l                                                             ",
"                                                  } d 8 + . . . . o o : 9 a                                                     ",
"                                              J 0 o o o o o o o o o o o o o : y                                                 ",
"                                            9 O . O o . o . o o . o o o o . . o 2                                               ",
"                                          , O o . . . . . . . . . . . . . . . . . + a                                           ",
"                                      x % o X . . . O o . . . . . . . . o . . . . O o i                                         ",
"                                      = o . o . o O . . . . . . o . . o . . o . . o . . s                                       ",
"                                    , o o . . . . . . . . . . o . . . . . . . . . . o . o                                       ",
"                                  y o O . . . . . . . . . o . . . o . . . . . . . . O o o :                                     ",
"                                  + o o o . . . . . . . . . . . . . . . . o . . . . . . o . r                                   ",
"                                8 . . . . . o . o . . . . o . o . . . . . o . . o . . . . o #                                   ",
"                                $ o o . . . . . . . . . o . . . . . . . o . . . . . X . . . . f                                 ",
"                              d . . . . . . . . . . . o . . . . . . O . o o o . . . . o . . . 2                                 ",
"                              r . . . . . o . . . . o . o . + ; ; + o . . o . . . . . . . . X %                                 ",
"                              2 o o o . . o . . . . . o + z M h h H a + O o o o . . . . . . o .                                 ",
"                              * o o o . . . . . O . O @ U q ^ V ( n q M O O O o o . . o . . o . p                               ",
"                              & . o o . . . . . . . . z q <.w.u n e.-.u a o . o o . . . . o . . y                               ",
"                              $ o o o o . . o o o . : n ] 5.~ o # O.7.h U % O X . . o o o . . X y                               ",
"                              & . o o o o . . o = V h 3 C r O O X @ a a q j f + o . o o . o . . y                               ",
"                              $ . o . . o . O = b e $.v [ b = . . 6 ^ ~  ._ u H O . . . . . . X y                               ",
"                              # . o . o . o . V w 9.r.r H w.=.& 2 1.7.f c r.>.w f . . o . . . . y                               ",
"                              # . O . . o . , c $.0.T O + @.w.h ] 3.( o o o.t.v U % o . o . o . y                               ",
"                              # . O . o : A n < U 0 o o o % u a M u o X + o a j 0 c h # O . . . y                               ",
"                              # o o . : H u $.H #._ > O X 8 $.! $.| 2 X O 3 $.X.| @.t U + O . X y                               ",
"                              # . o . v i 0.0.7 R r.;.& 5 q.r.y z t.*.; 3 2.t.f h 0.2.e l X o . y                               ",
"                              # . . : j &.0.j O # X.r.h $.0.J O @ | t.J  .t.} o + } 0.| Y + . . y                               ",
"                              & X o 0 w x 5 O . + @ i a x 5 o . . + r d x y O o o O 9 x c * . X y                               ",
"                              # . X 7 a :.} , O . q :.W %.X.2 . o 9 %._ $.%.7 O o 5 %.o.n # . . y                               ",
"                              # . o @ n W t.:.# r 0.0.r S 0.2.= 5 0.r.i f t.9.3 3 2.t.g U . . . y                               ",
"                              # . o + d i $.y.z *.q.A . @ | 0.c @.r.x O + ` q._ _ q.E h 7 . . . y                               ",
"                              $ . O . . g h y y A 3 O o . O 0 a x 5 o . O . r d i y M y . O . . y                               ",
"                              # . o o o . 4 n u :.$.3 O . i >.E *.%.5 X . 7 *.X.h f > O . . . X y                               ",
"                              # . o . . . o . P j 0.>.- y q.0.r k t.2.3 7 2.r.p V X . o . o . . y                               ",
"                              # . o . . . . o w g [ 0.j *.0.k X o } t.R | t.x n 4 X o . o . . X y                               ",
"                              # . o . . . o . . w h u y l 4 . . o O r a a y A 0 . . . . . . . . y                               ",
"                              # . o . . . o . X o 1 M a *.%.7 O o a >.} c k : . o o . . . . . . y                               ",
"                              # . o . . . o . . . . o n j 0.2., 7 0.0.t A O o o . o . . . . . . y                               ",
"                              = o o . . . . . . o O o q f W 9.U %.9.k n 1 o X o . . . o . . . . a                               ",
"                              2 . o o . . . o . . . . o a V u 0 y u U 6 O o . . . . . . . o o .                                 ",
"                              5 X o o o . . . . . . . . X : f z M p @ O . . . . o . . . . o o o                                 ",
"                              r O . o . . . . . . . . O o o O X o X o . . . . o . . . . . . O <                                 ",
"                                + o o o . o . . . . . O . . o . . . . . . . . . . . . o . . . q                                 ",
"                                7 . . . . . . . o . . . . o X . . . . . . o . . . . o o o o o                                   ",
"                                p o . o . . . . . . o . . . . . . o . . . . . . . o . o . o 9                                   ",
"                                  4 O O o . . . . . . . . . . . . . . . . . . . . . . o . +                                     ",
"                                    # X o o o . o o . . . . o . o . . o . . . o o o . O . y                                     ",
"                                    l o . . . . o . . . . . . . . . . . . . . . o o . . 5                                       ",
"                                      a . O o . . o . . . . . . . . o . . . . . o . . 4                                         ",
"                                        a + . . . o o . o o o o . . . o . . o . o . 4                                           ",
"                                          j = o . o X . o o O X O . . . . . . O + u                                             ",
"                                              p % . + o . . . o . . o o o O O 6 !                                               ",
"                                                  i 2 o . X o X o o o o & q x                                                   ",
"                                                        a y 3 , < 0 a                                                           ",
"                                                                                                                                ",
"                                                                                                                                ",
"                                                                                                                                ",
"                                                                                                                                ",
"                                                                                                                                "
};
