/* XPM */
static char *b5bf07a0e0a94fecce72729be932732eNscup7eEpeQRZ25g[] = {
/* columns rows colors chars-per-pixel */
"32 32 183 2 ",
"   c None",
".  c #E6D336",
"X  c #E6D337",
"o  c #E7D337",
"O  c #E5D437",
"+  c #E6D436",
"@  c #E6D437",
"#  c #E5D339",
"$  c #E7D238",
"%  c #E6D338",
"&  c #E7D338",
"*  c #E7D239",
"=  c #E6D339",
"-  c #E7D339",
";  c #E5D33A",
":  c #E6D33A",
">  c #E6D33B",
",  c #E5D438",
"<  c #E5D439",
"1  c #E6D438",
"2  c #E7D438",
"3  c #E6D439",
"4  c #E7D439",
"5  c #E6D43A",
"6  c #E7D33C",
"7  c #E7D33F",
"8  c #E7D43D",
"9  c #E6D53F",
"0  c #E8D239",
"q  c #E6D441",
"w  c #E5D542",
"e  c #E6D442",
"r  c #E6D443",
"t  c #E5D445",
"y  c #E7D445",
"u  c #E6D546",
"i  c #E7D447",
"p  c #E6D549",
"a  c #E5D648",
"s  c #E6D54A",
"d  c #E7D64B",
"f  c #E6D54D",
"g  c #E6D74D",
"h  c #E7D54E",
"j  c #E8D44B",
"k  c #E8D54E",
"l  c #E8D64F",
"z  c #E7D551",
"x  c #E6D553",
"c  c #E7D652",
"v  c #E6D752",
"b  c #E6D653",
"n  c #E7D653",
"m  c #E7D753",
"M  c #E6D755",
"N  c #E6D757",
"B  c #E7D65A",
"V  c #E7D75A",
"C  c #E7D85B",
"Z  c #E6D95F",
"A  c #E7D95F",
"S  c #E8D85B",
"D  c #E8D95C",
"F  c #E8D85D",
"G  c #E7D963",
"H  c #E6DA62",
"J  c #E8DA64",
"K  c #E8DB68",
"L  c #E8DB6D",
"P  c #EBD972",
"I  c #E9DD70",
"U  c #EADA75",
"Y  c #EADC74",
"T  c #E9DD76",
"R  c #E9DB79",
"E  c #E9DE78",
"W  c #EADE79",
"Q  c #E9DE7A",
"!  c #EADB7D",
"~  c #EADC7C",
"^  c #EBDD7C",
"/  c #EADC7D",
"(  c #EBDC7E",
")  c #EBDE7E",
"_  c #EADF7F",
"`  c #EADC81",
"'  c #EBDE82",
"]  c #EADC84",
"[  c #EADD84",
"{  c #EADD85",
"}  c #EADF84",
"|  c #E9DE87",
" . c #EADE87",
".. c #ECDF84",
"X. c #EADF88",
"o. c #EBDF8B",
"O. c #ECDE8B",
"+. c #EADE8D",
"@. c #E9DF8E",
"#. c #EBE083",
"$. c #EAE189",
"%. c #EAE08F",
"&. c #EBE193",
"*. c #ECE196",
"=. c #ECE197",
"-. c #ECE299",
";. c #EBE49A",
":. c #ECE49B",
">. c #EDE49B",
",. c #ECE39D",
"<. c #EBE49C",
"1. c #EDE49C",
"2. c #ECE59F",
"3. c #EFE6A8",
"4. c #EFE7AB",
"5. c #EFE8AD",
"6. c #EFE8AE",
"7. c #F1E6A8",
"8. c #F1E6AF",
"9. c #F0E8AE",
"0. c #F0E8AF",
"q. c #EDE6B4",
"w. c #EEE7B6",
"e. c #EEE9B2",
"r. c #EFE8B6",
"t. c #F1E8B3",
"y. c #F1EBB2",
"u. c #F0EAB3",
"i. c #F1EBB3",
"p. c #F1EAB5",
"a. c #F2EBB4",
"s. c #F0EAB7",
"d. c #F1EBB7",
"f. c #F2EAB7",
"g. c #F3ECB7",
"h. c #F3EDB7",
"j. c #F1E9B8",
"k. c #F1EAB8",
"l. c #F1EAB9",
"z. c #F2EAB8",
"x. c #F2EBB9",
"c. c #F3EBBB",
"v. c #F2ECB8",
"b. c #F2EDB8",
"n. c #F2ECBA",
"m. c #F3EDBA",
"M. c #F4EDBA",
"N. c #F2EBBC",
"B. c #F0EABF",
"V. c #F2EBBE",
"C. c #F0EDBD",
"Z. c #F3EDBC",
"A. c #EFE9C1",
"S. c #F1E8C3",
"D. c #F1EDC1",
"F. c #F1ECC2",
"G. c #F2EDC3",
"H. c #F2EEC3",
"J. c #F3ECC4",
"K. c #F2EEC4",
"L. c #F3EEC5",
"P. c #F2EEC6",
"I. c #F3EEC7",
"U. c #F3EFC7",
"Y. c #F3EFC8",
"T. c #F2ECCA",
"R. c #F4F0CC",
"E. c #F5F1CD",
"W. c #F4F0CE",
"Q. c #F4F0CF",
"!. c #F6F2CF",
"~. c #F3ECD0",
"^. c #F3EDD3",
"/. c #F4F1D0",
"(. c #F4F2D1",
"). c #F6F2D1",
"_. c #F5F2D4",
"`. c #F6F2D4",
"'. c #F6F3D5",
"]. c #F6F4D7",
"[. c #F6F4D9",
"{. c #F6F4DA",
"}. c #F7F4DA",
/* pixels */
"                                                                ",
"                                                                ",
"                                                                ",
"                            W J K W                             ",
"                      ) m 0 % % 3 3 3 V                         ",
"                    H 0 X % % X X X X X 3 )                     ",
"                  H % % X X X X X X X X 3 + )                   ",
"                #.% % X X X X % X X X X X % e                   ",
"                v X X X X X X % X % % % X X X Y                 ",
"                + X X X X % X t t 0 % % X X X g                 ",
"              I % 3 X X % 8 *.r.k.%.% % X X X X                 ",
"              D % % X % X X.^.q.A.T.} X 3 % % X                 ",
"              S 3 % 3 r -.5.t.r v e.t.&.% % % X                 ",
"              C % % % @.].8.B.S.~.w.V.(.} % 0 3                 ",
"              C % r ,.0.k.t v p.k.p g k.p.=.6 X                 ",
"              C 3 X.}.3.D.J._.5.Z.L.!.k.k.(.} X                 ",
"              C 3 O.M.t V k.v.t n i.M.m g v.@.X                 ",
"              C 3 ` R.J.}.5.M.U._.8.M.T.!.J.R X                 ",
"              C 4 + } 1.C.j V t.M.k m v.1.` X X                 ",
"              C 3 + 4 ( L.H.}.7.k.!.(.D.U % % X                 ",
"              S 3 X % X ` ,.v.g B p.3.R X + X X                 ",
"              H % X X X % ! J.R._.C.P % X X X X                 ",
"                % % X X X X } >.1.W 0 X X X X 3                 ",
"                % % X X X % % o 3 X X X X X X C                 ",
"                G % X X X X X X X X X X % % 3 Y                 ",
"                  q % X % X X X X X X X % 3 n                   ",
"                  ..+ + % X X % X X + X % k                     ",
"                    $.r % o % 0 % + + 3 N                       ",
"                        L p % 3 % % V W                         ",
"                                                                ",
"                                                                ",
"                                                                "
};
