/* XPM */
static char *e74b8f97a2134d05c05286ebc8cd975cQ9SKWMb7VS5p2jaG[] = {
/* columns rows colors chars-per-pixel */
"16 16 54 1 ",
"  c None",
". c #E6D337",
"X c #E6D437",
"o c #E6D338",
"O c #E6D339",
"+ c #E6D33B",
"@ c #E6D438",
"# c #E7D33C",
"$ c #E6D43F",
"% c #E6D440",
"& c #E6D442",
"* c #E6D443",
"= c #E7D64E",
"- c #E7D64F",
"; c #E7D751",
": c #E7D654",
"> c #E7D754",
", c #E7D655",
"< c #E7D757",
"1 c #E8D654",
"2 c #E8D657",
"3 c #E7D758",
"4 c #E7D759",
"5 c #E7D85C",
"6 c #E8D961",
"7 c #E8D962",
"8 c #E8D866",
"9 c #E9D969",
"0 c #E9DA6C",
"q c #E8DB6C",
"w c #E9DA6F",
"e c #EADB79",
"r c #EADC79",
"t c #EADC7C",
"y c #EADD7D",
"u c #EEE4A8",
"i c #EDE4AB",
"p c #EFE7AA",
"a c #EFE6AB",
"s c #EFE7AB",
"d c #F0E7AA",
"f c #F0E7AC",
"g c #F0E7AD",
"h c #F0E7AE",
"j c #F0E8AD",
"k c #F0E8AE",
"l c #F0E9AF",
"z c #EFE7B6",
"x c #EFE8B6",
"c c #F0E9B0",
"v c #F0E9B1",
"b c #F0E9B5",
"n c #F1E9B5",
"m c #F1EAB7",
/* pixels */
"                ",
"                ",
"     6%.O%q     ",
"    6O.O..O     ",
"    $.OOO..-    ",
"    O.2zb:OO    ",
"    O3buim1@    ",
"    <bdauhb1    ",
"    9jhdjjj8    ",
"    @yjhjve.    ",
"    O.thvrOO    ",
"    O.OqqO.%    ",
"    <@...@@5    ",
"     -O..@1     ",
"       :3       ",
"                "
};
